<?xml version="1.0" encoding="iso-8859-1"?>
<!-- Generator: Adobe Illustrator 19.0.0, SVG Export Plug-In . SVG Version: 6.00 Build 0)  -->
<svg version="1.1" id="Layer_1" xmlns="http://www.w3.org/2000/svg" xmlns:xlink="http://www.w3.org/1999/xlink" x="0px" y="0px"
	 viewBox="0 0 512 512" style="enable-background:new 0 0 512 512;" xml:space="preserve">
<g>
	<g>
		<g>
			<rect x="243.691" y="58.952" width="16.134" height="67.844"/>
			<path d="M417.488,184.162c-29.97-36.729-69.96-56.956-112.605-56.956c-16.462,0-32.891,3.196-48.883,9.506
				c-15.991-6.31-32.42-9.506-48.884-9.506c-42.644,0-82.635,20.227-112.604,56.956c-29.58,36.251-45.871,84.351-45.871,135.441
				c0,51.089,16.29,99.189,45.869,135.441C124.48,491.773,164.471,512,207.116,512c16.463,0,32.891-3.196,48.884-9.506
				c15.991,6.31,32.42,9.506,48.883,9.506c42.645,0,82.635-20.227,112.605-56.956c29.58-36.252,45.871-84.352,45.871-135.441
				C463.359,268.514,447.068,220.413,417.488,184.162z M304.884,495.867c-15.376,0-30.768-3.202-45.749-9.517l-3.133-1.321
				l-3.133,1.321c-14.98,6.316-30.373,9.517-45.749,9.517c-78.487,0-142.341-79.071-142.341-176.263s63.853-176.263,142.341-176.263
				c9.963,0,19.932,1.353,29.791,4.018l-39.112,23.167l8.222,13.882l53.582-31.738c14.834-6.186,30.065-9.327,45.282-9.327
				c78.487,0,142.342,79.071,142.342,176.263S383.371,495.867,304.884,495.867z"/>
			<path d="M370.074,49.139V0h-49.14c-28.562,0-51.798,23.237-51.798,51.798v49.139h49.14
				C346.837,100.937,370.074,77.7,370.074,49.139z M296.676,84.805l39.385-39.385l-11.407-11.407l-39.385,39.384V51.798
				c0-19.666,15.999-35.666,35.664-35.666h33.006v33.006c0,19.666-15.999,35.666-35.665,35.666H296.676z"/>
			<path d="M189.028,112.932h49.284V63.647c0.001-28.481-23.171-51.653-51.653-51.653h-49.284v49.284
				C137.375,89.761,160.547,112.932,189.028,112.932z M153.509,28.127h33.152c19.586,0,35.52,15.935,35.52,35.52v21.743
				l-39.385-39.384l-11.407,11.407l39.385,39.385H189.03c-19.587,0-35.521-15.934-35.521-35.52V28.127z"/>
			<rect x="250.306" y="459.794" width="16.133" height="16.133"/>
		</g>
	</g>
</g>
<g>
</g>
<g>
</g>
<g>
</g>
<g>
</g>
<g>
</g>
<g>
</g>
<g>
</g>
<g>
</g>
<g>
</g>
<g>
</g>
<g>
</g>
<g>
</g>
<g>
</g>
<g>
</g>
<g>
</g>
</svg>
