<?xml version="1.0" encoding="iso-8859-1"?>
<!-- Generator: Adobe Illustrator 18.0.0, SVG Export Plug-In . SVG Version: 6.00 Build 0)  -->
<!DOCTYPE svg PUBLIC "-//W3C//DTD SVG 1.1//EN" "http://www.w3.org/Graphics/SVG/1.1/DTD/svg11.dtd">
<svg version="1.1" id="Capa_1" xmlns="http://www.w3.org/2000/svg" xmlns:xlink="http://www.w3.org/1999/xlink" x="0px" y="0px"
	 viewBox="0 0 458.414 458.414" style="enable-background:new 0 0 458.414 458.414;" xml:space="preserve">
<g>
	<path d="M154.363,53.056c-5.413,0-10.613,0.921-15.465,2.593c1.705-2.262,3.23-4.683,4.535-7.265
		c5.736-11.35,6.708-24.254,2.738-36.335c-0.331-1.008-1.049-1.843-1.996-2.321c-0.946-0.479-2.043-0.562-3.053-0.229
		c-12.025,3.952-21.8,12.332-27.546,23.603c-3.51-14.313-13.572-26.82-28.229-32.804c-0.982-0.402-2.083-0.396-3.062,0.016
		c-0.978,0.411-1.752,1.193-2.153,2.176c-5.118,12.534-4.471,26.005,0.677,37.479c-5.491-2.217-11.482-3.448-17.758-3.448
		c-2.209,0-4,1.791-4,4c0,10.701,3.551,20.587,9.533,28.546c-1.817-0.211-3.661-0.332-5.533-0.332c-2.209,0-4,1.791-4,4
		c0,10.7,3.55,20.586,9.532,28.545c-1.816-0.211-3.66-0.332-5.532-0.332c-2.209,0-4,1.791-4,4c0,10.699,3.549,20.584,9.53,28.542
		c-1.823-0.21-3.667-0.328-5.53-0.328c-2.209,0-4,1.791-4,4c0,10.7,3.55,20.586,9.532,28.545c-1.816-0.211-3.66-0.332-5.532-0.332
		c-2.209,0-4,1.791-4,4c0,10.7,3.55,20.586,9.532,28.545c-1.816-0.211-3.66-0.332-5.532-0.332c-2.209,0-4,1.791-4,4
		c0,25.63,20.361,46.584,45.756,47.562v205.266c0,2.209,1.791,4,4,4s4-1.791,4-4V266.658c25.302-1.079,45.557-21.992,45.557-47.555
		c0-2.209-1.791-4-4-4c-1.931,0-3.832,0.129-5.704,0.354c6.083-7.997,9.704-17.964,9.704-28.764c0-2.209-1.791-4-4-4
		c-1.931,0-3.832,0.129-5.703,0.354c6.083-7.997,9.703-17.963,9.703-28.763c0-2.209-1.791-4-4-4c-1.931,0-3.832,0.129-5.703,0.354
		c6.083-7.997,9.703-17.963,9.703-28.763c0-2.209-1.791-4-4-4c-1.931,0-3.832,0.129-5.703,0.354
		c6.083-7.997,9.703-17.963,9.703-28.763c0-2.209-1.791-4-4-4c-1.931,0-3.832,0.129-5.703,0.354
		c6.083-7.997,9.703-17.963,9.703-28.763C158.363,54.847,156.572,53.056,154.363,53.056z M120.634,36.863
		c4.132-8.175,10.805-14.533,19.044-18.236c3.897,18.167-5.491,36.749-22.431,44.383C115.342,54.18,116.503,45.037,120.634,36.863z
		 M116.453,71.908c-1.341,1.763-2.558,3.624-3.646,5.566v-5.542c0.539,0.262,1.135,0.408,1.748,0.408
		C114.968,72.34,116.236,71.983,116.453,71.908z M104.806,93.495c-1.094-1.991-2.326-3.895-3.683-5.7
		c1.215,0.141,2.443,0.238,3.683,0.285V93.495z M104.806,125.708c-1.094-1.99-2.326-3.894-3.683-5.699
		c1.215,0.141,2.442,0.237,3.683,0.285V125.708z M104.806,157.872c-1.076-1.956-2.292-3.843-3.647-5.645
		c1.203,0.139,2.418,0.233,3.647,0.281V157.872z M104.806,190.135c-1.094-1.99-2.326-3.894-3.683-5.699
		c1.215,0.141,2.442,0.237,3.683,0.285V190.135z M112.806,201.839c1.231-0.052,2.448-0.157,3.653-0.302
		c-1.343,1.766-2.563,3.629-3.653,5.575V201.839z M112.806,169.43c1.231-0.052,2.448-0.157,3.653-0.302
		c-1.343,1.766-2.563,3.628-3.653,5.574V169.43z M112.806,137.021c1.231-0.052,2.448-0.157,3.653-0.302
		c-1.343,1.766-2.563,3.628-3.653,5.574V137.021z M112.806,104.612c1.231-0.052,2.448-0.157,3.653-0.302
		c-1.343,1.766-2.563,3.628-3.653,5.574V104.612z M86.148,9.507c16.36,8.805,24.424,27.996,19.261,45.843
		C89.05,46.545,80.986,27.354,86.148,9.507z M102.434,79.904c-18.474-1.967-33.193-16.687-35.16-35.16
		C85.748,46.71,100.467,61.43,102.434,79.904z M102.434,112.118c-18.474-1.967-33.193-16.687-35.16-35.16
		C85.748,78.924,100.467,93.644,102.434,112.118z M102.434,144.331c-18.474-1.967-33.193-16.687-35.16-35.16
		C85.748,111.137,100.467,125.857,102.434,144.331z M102.434,176.544c-18.474-1.967-33.193-16.687-35.16-35.161
		C85.748,143.35,100.467,158.07,102.434,176.544z M102.434,208.757c-18.474-1.967-33.193-16.687-35.16-35.16
		C85.748,175.564,100.467,190.284,102.434,208.757z M67.274,205.81c18.474,1.967,33.193,16.687,35.16,35.161
		C83.961,239.004,69.241,224.285,67.274,205.81z M101.123,216.649c1.215,0.141,2.442,0.237,3.683,0.285v5.415
		C103.713,220.358,102.48,218.454,101.123,216.649z M112.806,234.249c1.231-0.052,2.448-0.157,3.653-0.302
		c-1.343,1.766-2.563,3.628-3.653,5.574V234.249z M114.979,258.487c1.967-18.474,16.687-33.193,35.16-35.16
		C148.173,241.8,133.453,256.52,114.979,258.487z M114.979,226.078c1.967-18.475,16.687-33.194,35.16-35.161
		C148.173,209.391,133.453,224.111,114.979,226.078z M114.979,193.667c1.967-18.474,16.687-33.193,35.16-35.16
		C148.173,176.981,133.453,191.701,114.979,193.667z M114.979,161.258c1.967-18.474,16.687-33.193,35.16-35.16
		C148.173,144.572,133.453,159.291,114.979,161.258z M114.979,128.849c1.967-18.474,16.687-33.193,35.16-35.16
		C148.173,112.163,133.453,126.882,114.979,128.849z M114.979,96.44c1.967-18.474,16.687-33.193,35.16-35.16
		C148.173,79.753,133.453,94.473,114.979,96.44z"/>
	<path d="M274.863,53.056c-5.413,0-10.613,0.921-15.465,2.593c1.705-2.262,3.23-4.683,4.535-7.265
		c5.736-11.35,6.708-24.254,2.738-36.335c-0.331-1.008-1.049-1.843-1.996-2.321c-0.945-0.479-2.043-0.562-3.053-0.229
		c-12.025,3.952-21.8,12.332-27.546,23.603c-3.51-14.313-13.572-26.82-28.229-32.804c-0.982-0.402-2.083-0.396-3.062,0.016
		c-0.978,0.411-1.752,1.193-2.153,2.176c-5.118,12.534-4.471,26.005,0.677,37.479c-5.491-2.217-11.482-3.448-17.758-3.448
		c-2.209,0-4,1.791-4,4c0,10.701,3.551,20.587,9.533,28.546c-1.817-0.211-3.661-0.332-5.533-0.332c-2.209,0-4,1.791-4,4
		c0,10.7,3.55,20.586,9.532,28.545c-1.816-0.211-3.66-0.332-5.532-0.332c-2.209,0-4,1.791-4,4c0,10.699,3.549,20.584,9.53,28.542
		c-1.823-0.21-3.667-0.328-5.53-0.328c-2.209,0-4,1.791-4,4c0,10.7,3.55,20.586,9.532,28.545c-1.816-0.211-3.66-0.332-5.532-0.332
		c-2.209,0-4,1.791-4,4c0,10.7,3.55,20.586,9.532,28.545c-1.816-0.211-3.66-0.332-5.532-0.332c-2.209,0-4,1.791-4,4
		c0,25.63,20.361,46.584,45.756,47.562v205.266c0,2.209,1.791,4,4,4s4-1.791,4-4V266.658c25.302-1.079,45.557-21.992,45.557-47.555
		c0-2.209-1.791-4-4-4c-1.931,0-3.832,0.129-5.704,0.354c6.083-7.997,9.704-17.964,9.704-28.764c0-2.209-1.791-4-4-4
		c-1.931,0-3.832,0.129-5.703,0.354c6.083-7.997,9.703-17.963,9.703-28.763c0-2.209-1.791-4-4-4c-1.931,0-3.832,0.129-5.703,0.354
		c6.083-7.997,9.703-17.963,9.703-28.763c0-2.209-1.791-4-4-4c-1.931,0-3.832,0.129-5.703,0.354
		c6.083-7.997,9.703-17.963,9.703-28.763c0-2.209-1.791-4-4-4c-1.931,0-3.832,0.129-5.703,0.354
		c6.083-7.997,9.703-17.963,9.703-28.763C278.863,54.847,277.072,53.056,274.863,53.056z M241.134,36.863
		c4.132-8.175,10.805-14.533,19.044-18.236c3.897,18.167-5.491,36.749-22.431,44.383C235.842,54.18,237.003,45.037,241.134,36.863z
		 M236.953,71.908c-1.341,1.763-2.558,3.624-3.646,5.566v-5.542c0.539,0.262,1.135,0.408,1.748,0.408
		C235.468,72.34,236.736,71.983,236.953,71.908z M225.306,93.495c-1.094-1.991-2.326-3.895-3.683-5.7
		c1.215,0.141,2.443,0.238,3.683,0.285V93.495z M225.306,125.708c-1.094-1.99-2.326-3.894-3.683-5.699
		c1.215,0.141,2.442,0.237,3.683,0.285V125.708z M225.306,157.872c-1.076-1.956-2.292-3.843-3.647-5.645
		c1.203,0.139,2.418,0.233,3.647,0.281V157.872z M225.306,190.135c-1.094-1.99-2.326-3.894-3.683-5.699
		c1.215,0.141,2.442,0.237,3.683,0.285V190.135z M233.306,201.839c1.231-0.052,2.448-0.157,3.653-0.302
		c-1.343,1.766-2.563,3.629-3.653,5.575V201.839z M233.306,169.43c1.231-0.052,2.448-0.157,3.653-0.302
		c-1.343,1.766-2.563,3.628-3.653,5.574V169.43z M233.306,137.021c1.231-0.052,2.448-0.157,3.653-0.302
		c-1.343,1.766-2.563,3.628-3.653,5.574V137.021z M233.306,104.612c1.231-0.052,2.448-0.157,3.653-0.302
		c-1.343,1.766-2.563,3.628-3.653,5.574V104.612z M206.648,9.507c16.36,8.805,24.424,27.996,19.261,45.843
		C209.55,46.545,201.486,27.354,206.648,9.507z M222.934,79.904c-18.474-1.967-33.193-16.687-35.16-35.16
		C206.248,46.71,220.967,61.43,222.934,79.904z M222.934,112.118c-18.474-1.967-33.193-16.687-35.16-35.16
		C206.248,78.924,220.967,93.644,222.934,112.118z M222.934,144.331c-18.474-1.967-33.193-16.687-35.16-35.16
		C206.248,111.137,220.967,125.857,222.934,144.331z M222.934,176.544c-18.474-1.967-33.193-16.687-35.16-35.161
		C206.248,143.35,220.967,158.07,222.934,176.544z M222.934,208.757c-18.474-1.967-33.193-16.687-35.16-35.16
		C206.248,175.564,220.967,190.284,222.934,208.757z M187.774,205.81c18.474,1.967,33.193,16.687,35.16,35.161
		C204.461,239.004,189.741,224.285,187.774,205.81z M221.623,216.649c1.215,0.141,2.442,0.237,3.683,0.285v5.415
		C224.213,220.358,222.98,218.454,221.623,216.649z M233.306,234.249c1.231-0.052,2.448-0.157,3.653-0.302
		c-1.343,1.766-2.563,3.628-3.653,5.574V234.249z M235.479,258.487c1.967-18.474,16.687-33.193,35.16-35.16
		C268.673,241.8,253.953,256.52,235.479,258.487z M235.479,226.078c1.967-18.475,16.687-33.194,35.16-35.161
		C268.673,209.391,253.953,224.111,235.479,226.078z M235.479,193.667c1.967-18.474,16.687-33.193,35.16-35.16
		C268.673,176.981,253.953,191.701,235.479,193.667z M235.479,161.258c1.967-18.474,16.687-33.193,35.16-35.16
		C268.673,144.572,253.953,159.291,235.479,161.258z M235.479,128.849c1.967-18.474,16.687-33.193,35.16-35.16
		C268.673,112.163,253.953,126.882,235.479,128.849z M235.479,96.44c1.967-18.474,16.687-33.193,35.16-35.16
		C268.673,79.753,253.953,94.473,235.479,96.44z"/>
	<path d="M395.363,85.465c-1.931,0-3.832,0.129-5.703,0.354c6.083-7.997,9.703-17.963,9.703-28.763c0-2.209-1.791-4-4-4
		c-5.413,0-10.613,0.921-15.465,2.593c1.705-2.262,3.23-4.683,4.535-7.265c5.736-11.35,6.708-24.254,2.738-36.335
		c-0.331-1.008-1.049-1.843-1.996-2.321c-0.946-0.479-2.043-0.562-3.053-0.229c-12.025,3.952-21.8,12.332-27.546,23.603
		c-3.51-14.313-13.572-26.82-28.229-32.804c-0.982-0.402-2.083-0.396-3.062,0.016c-0.978,0.411-1.752,1.193-2.153,2.176
		c-5.118,12.534-4.471,26.005,0.677,37.479c-5.491-2.217-11.482-3.448-17.758-3.448c-2.209,0-4,1.791-4,4
		c0,10.701,3.551,20.587,9.533,28.546c-1.817-0.211-3.66-0.332-5.533-0.332c-2.209,0-4,1.791-4,4c0,10.7,3.55,20.586,9.532,28.545
		c-1.816-0.211-3.66-0.332-5.532-0.332c-2.209,0-4,1.791-4,4c0,10.699,3.549,20.584,9.53,28.542c-1.823-0.21-3.667-0.328-5.53-0.328
		c-2.209,0-4,1.791-4,4c0,10.7,3.55,20.586,9.532,28.545c-1.816-0.211-3.66-0.332-5.532-0.332c-2.209,0-4,1.791-4,4
		c0,10.7,3.55,20.586,9.532,28.545c-1.816-0.211-3.66-0.332-5.532-0.332c-2.209,0-4,1.791-4,4c0,25.63,20.361,46.584,45.756,47.562
		v205.266c0,2.209,1.791,4,4,4s4-1.791,4-4V266.658c25.302-1.079,45.557-21.992,45.557-47.555c0-2.209-1.791-4-4-4
		c-1.931,0-3.832,0.129-5.704,0.354c6.083-7.997,9.704-17.964,9.704-28.764c0-2.209-1.791-4-4-4c-1.931,0-3.832,0.129-5.703,0.354
		c6.083-7.997,9.703-17.963,9.703-28.763c0-2.209-1.791-4-4-4c-1.931,0-3.832,0.129-5.703,0.354
		c6.083-7.997,9.703-17.963,9.703-28.763c0-2.209-1.791-4-4-4c-1.931,0-3.832,0.129-5.703,0.354
		c6.083-7.997,9.703-17.963,9.703-28.763C399.363,87.256,397.572,85.465,395.363,85.465z M345.806,93.495
		c-1.094-1.991-2.326-3.895-3.683-5.7c1.215,0.141,2.443,0.238,3.683,0.285V93.495z M345.806,125.708
		c-1.094-1.99-2.326-3.894-3.683-5.699c1.215,0.141,2.442,0.237,3.683,0.285V125.708z M345.806,157.872
		c-1.076-1.956-2.292-3.843-3.647-5.645c1.203,0.139,2.418,0.233,3.647,0.281V157.872z M345.806,190.135
		c-1.094-1.99-2.326-3.894-3.683-5.699c1.215,0.141,2.442,0.237,3.683,0.285V190.135z M353.806,201.839
		c1.231-0.052,2.448-0.157,3.653-0.302c-1.343,1.766-2.563,3.629-3.653,5.575V201.839z M353.806,169.43
		c1.231-0.052,2.448-0.157,3.653-0.302c-1.343,1.766-2.563,3.628-3.653,5.574V169.43z M353.806,137.021
		c1.231-0.052,2.448-0.157,3.653-0.302c-1.343,1.766-2.563,3.628-3.653,5.574V137.021z M353.806,104.612
		c1.231-0.052,2.448-0.157,3.653-0.302c-1.343,1.766-2.563,3.628-3.653,5.574V104.612z M355.979,96.44
		c1.967-18.474,16.687-33.193,35.16-35.16C389.173,79.753,374.453,94.473,355.979,96.44z M361.634,36.863
		c4.132-8.175,10.805-14.533,19.044-18.236c3.897,18.167-5.491,36.749-22.431,44.383C356.342,54.18,357.503,45.037,361.634,36.863z
		 M357.453,71.908c-1.341,1.763-2.558,3.624-3.646,5.566v-5.542c0.539,0.262,1.135,0.408,1.748,0.408
		C355.968,72.34,357.236,71.983,357.453,71.908z M327.148,9.507c16.36,8.805,24.424,27.996,19.261,45.843
		C330.05,46.545,321.986,27.354,327.148,9.507z M343.434,79.904c-18.474-1.967-33.193-16.687-35.16-35.16
		C326.748,46.71,341.467,61.43,343.434,79.904z M343.434,112.118c-18.474-1.967-33.193-16.687-35.16-35.16
		C326.748,78.924,341.467,93.644,343.434,112.118z M343.434,144.331c-18.474-1.967-33.193-16.687-35.16-35.16
		C326.748,111.137,341.467,125.857,343.434,144.331z M343.434,176.544c-18.474-1.967-33.193-16.687-35.16-35.161
		C326.748,143.35,341.467,158.07,343.434,176.544z M343.434,208.757c-18.474-1.967-33.193-16.687-35.16-35.16
		C326.748,175.564,341.467,190.284,343.434,208.757z M308.274,205.81c18.474,1.967,33.193,16.687,35.16,35.161
		C324.961,239.004,310.241,224.285,308.274,205.81z M342.123,216.649c1.215,0.141,2.442,0.237,3.683,0.285v5.415
		C344.713,220.358,343.48,218.454,342.123,216.649z M353.806,234.249c1.231-0.052,2.448-0.157,3.653-0.302
		c-1.343,1.766-2.563,3.628-3.653,5.574V234.249z M355.979,258.487c1.967-18.474,16.687-33.193,35.16-35.16
		C389.173,241.8,374.453,256.52,355.979,258.487z M355.979,226.078c1.967-18.475,16.687-33.194,35.16-35.161
		C389.173,209.391,374.453,224.111,355.979,226.078z M355.979,193.667c1.967-18.474,16.687-33.193,35.16-35.16
		C389.173,176.981,374.453,191.701,355.979,193.667z M355.979,161.258c1.967-18.474,16.687-33.193,35.16-35.16
		C389.173,144.572,374.453,159.291,355.979,161.258z M355.979,128.849c1.967-18.474,16.687-33.193,35.16-35.16
		C389.173,112.163,374.453,126.882,355.979,128.849z"/>
</g>
<g>
</g>
<g>
</g>
<g>
</g>
<g>
</g>
<g>
</g>
<g>
</g>
<g>
</g>
<g>
</g>
<g>
</g>
<g>
</g>
<g>
</g>
<g>
</g>
<g>
</g>
<g>
</g>
<g>
</g>
</svg>
