<?xml version="1.0" encoding="iso-8859-1"?>
<!-- Generator: Adobe Illustrator 18.1.1, SVG Export Plug-In . SVG Version: 6.00 Build 0)  -->
<svg version="1.1" id="Capa_1" xmlns="http://www.w3.org/2000/svg" xmlns:xlink="http://www.w3.org/1999/xlink" x="0px" y="0px"
	 viewBox="0 0 612 612" style="enable-background:new 0 0 612 612;" xml:space="preserve">
<g>
	<path d="M366.553,69.195c-27.18-47.538-54.469-66.847-55.617-67.647c-2.969-2.064-6.907-2.064-9.876,0
		c-1.147,0.798-28.436,20.107-55.617,67.647c-24.721,43.239-54.187,119.42-54.187,236.805c0,117.39,29.467,193.572,54.187,236.809
		c27.18,47.538,54.469,66.844,55.618,67.643c1.484,1.032,3.212,1.548,4.938,1.548s3.454-0.516,4.938-1.548
		c1.149-0.798,28.438-20.105,55.618-67.643C391.277,499.572,420.744,423.39,420.744,306
		C420.74,188.613,391.273,112.432,366.553,69.195z M305.998,366.482c-10.207,0-18.481-8.274-18.481-18.479
		c0-10.209,8.274-18.481,18.481-18.481c10.207,0,18.481,8.27,18.481,18.481C324.479,358.208,316.205,366.482,305.998,366.482z
		 M324.479,432.003c0,10.205-8.274,18.479-18.481,18.479c-10.207,0-18.481-8.274-18.481-18.479c0-10.207,8.274-18.481,18.481-18.481
		C316.205,413.522,324.479,421.796,324.479,432.003z M305.998,282.478c-10.207,0-18.481-8.27-18.481-18.481
		c0-10.204,8.274-18.479,18.481-18.479c10.207,0,18.481,8.275,18.481,18.479C324.479,274.206,316.205,282.478,305.998,282.478z
		 M305.998,198.477c-10.207,0-18.481-8.275-18.481-18.481c0-10.207,8.274-18.479,18.481-18.479c10.207,0,18.481,8.272,18.481,18.479
		C324.479,190.202,316.205,198.477,305.998,198.477z M305.998,497.525c10.207,0,18.481,8.274,18.481,18.482
		c0,10.205-8.274,18.481-18.481,18.481c-10.207,0-18.481-8.275-18.481-18.481C287.518,505.798,295.791,497.525,305.998,497.525z
		 M305.998,114.475c-10.207,0-18.481-8.274-18.481-18.482c0-10.207,8.274-18.482,18.481-18.482c10.207,0,18.481,8.275,18.481,18.482
		C324.479,106.202,316.205,114.475,305.998,114.475z M208.554,306c0-112.861,27.89-185.809,51.285-227.129
		c7.172-12.663,14.361-23.191,20.998-31.806C256.533,87.034,223.383,167.015,223.383,306c0,138.469,32.902,218.369,57.18,258.486
		C250.377,524.964,208.554,445.106,208.554,306z M352.156,533.133c-7.17,12.663-14.361,23.189-20.996,31.802
		c24.301-39.969,57.452-119.946,57.452-258.937c0-138.984-33.15-218.965-57.453-258.934c6.637,8.615,13.826,19.141,20.998,31.804
		c23.397,41.32,51.285,114.268,51.285,227.129C403.443,418.866,375.553,491.812,352.156,533.133z"/>
</g>
<g>
</g>
<g>
</g>
<g>
</g>
<g>
</g>
<g>
</g>
<g>
</g>
<g>
</g>
<g>
</g>
<g>
</g>
<g>
</g>
<g>
</g>
<g>
</g>
<g>
</g>
<g>
</g>
<g>
</g>
</svg>
