<svg version="1.1" id="designs" xmlns="http://www.w3.org/2000/svg" xmlns:xlink="http://www.w3.org/1999/xlink" x="0px" y="0px"
	 width="32px" height="32px" viewBox="0 0 32 32" style="enable-background:new 0 0 32 32;" xml:space="preserve">
<style type="text/css">
	.sketchy_een{fill:#111918;}
</style>
<path class="sketchy_een" d="M26.99,10.361c0.021,0.028,0.042,0.055,0.063,0.083c0.008,0.009,0.015,0.019,0.023,0.029
	C27.047,10.435,27.019,10.398,26.99,10.361z M23.446,12.357c-0.18,0-0.356,0.064-0.475,0.206c-0.446,0.532-0.883,1.077-1.365,1.576
	c-0.435,0.452-0.877,0.898-1.306,1.356c-0.414,0.44-0.799,0.908-1.217,1.344c-0.228,0.237-0.454,0.477-0.693,0.703
	c-0.243,0.23-0.503,0.442-0.758,0.659c-0.311,0.264-0.27,0.786,0,1.056c0.296,0.296,0.758,0.277,1.056,0
	c0.232-0.213,0.475-0.414,0.703-0.63c0.237-0.226,0.465-0.461,0.693-0.699c0.429-0.444,0.818-0.923,1.219-1.392
	c0.401-0.473,0.82-0.927,1.247-1.375c0.492-0.516,0.957-1.056,1.418-1.599c0.125-0.148,0.207-0.3,0.207-0.499
	c0-0.186-0.076-0.366-0.207-0.499C23.836,12.431,23.64,12.357,23.446,12.357z M29.998,6.202c0.019,0.188-0.087,0.444-0.184,0.6
	c-0.053,0.089-0.112,0.173-0.175,0.256c-0.137,0.18-0.279,0.357-0.44,0.516c-0.15,0.15-0.302,0.298-0.458,0.446
	c-0.285,0.27-0.573,0.537-0.866,0.797c-0.3,0.265-0.617,0.507-0.932,0.751c-0.125,0.098-0.251,0.194-0.377,0.291
	c0.165,0.193,0.33,0.384,0.488,0.583c0.146,0.192,0.285,0.388,0.425,0.587c0.222,0.315,0.327,0.71,0.349,1.094
	c0.015,0.254-0.017,0.497-0.061,0.752c-0.027,0.154-0.059,0.315-0.114,0.463c-0.159,0.437-0.37,0.853-0.587,1.263
	c-0.199,0.376-0.423,0.75-0.678,1.092c-0.473,0.64-1.042,1.189-1.604,1.747c-0.564,0.558-1.124,1.118-1.699,1.665
	c-1.17,1.115-2.397,2.186-3.678,3.174c-0.902,0.714-1.727,1.51-2.602,2.256c-0.363,0.31-0.731,0.609-1.113,0.896
	c-0.328,0.247-0.672,0.477-1.006,0.716c-0.321,0.228-0.646,0.45-0.978,0.663c-0.355,0.226-0.712,0.475-1.094,0.653
	c-0.404,0.19-0.82,0.361-1.253,0.477c-0.41,0.112-0.824,0.194-1.244,0.26c-0.946,0.148-1.918,0.163-2.865,0.011
	c-0.403-0.065-0.786-0.169-1.173-0.302c-0.416-0.146-0.834-0.298-1.227-0.503c-0.372-0.192-0.731-0.416-1.058-0.682
	c-0.129-0.106-0.254-0.218-0.384-0.327c-0.137-0.114-0.279-0.222-0.403-0.349c-0.342-0.351-0.587-0.744-0.771-1.194
	c-0.063-0.152-0.12-0.306-0.156-0.465c-0.046-0.211-0.101-0.444-0.076-0.659c0.034-0.306,0.085-0.566,0.222-0.839
	c0.146-0.29,0.355-0.513,0.608-0.708c0.074-0.057,0.144-0.101,0.226-0.144c0.087-0.046,0.273-0.133,0.389-0.152
	c0.142-0.023,0.283-0.049,0.427-0.044C4.026,21.85,4.161,21.882,4.3,21.93c0.144,0.051,0.292,0.122,0.429,0.194
	c0.262,0.137,0.519,0.285,0.785,0.413c0.173,0.064,0.349,0.118,0.525,0.173c0.231,0.073,0.466,0.148,0.705,0.198
	c0.059,0.002,0.116,0,0.174-0.003c0.446-0.086,0.881-0.234,1.303-0.404c0.432-0.189,0.836-0.436,1.216-0.715
	c0.901-0.753,1.67-1.664,2.405-2.576c0.38-0.507,0.739-1.025,1.098-1.547c0.372-0.539,0.765-1.065,1.122-1.614
	c0.239-0.366,0.477-0.735,0.687-1.118c0.199-0.363,0.393-0.727,0.598-1.088c0.431-0.756,0.875-1.504,1.314-2.254
	c0.44-0.75,0.951-1.449,1.462-2.151c0.366-0.503,0.718-1.046,1.177-1.47c0.22-0.203,0.458-0.404,0.721-0.547
	c0.249-0.133,0.507-0.249,0.767-0.355c0.234-0.093,0.467-0.159,0.718-0.194c0.159-0.023,0.316-0.03,0.473-0.03
	c0.098,0,0.195,0.003,0.294,0.005c0.128,0.004,0.25,0.038,0.357,0.096c0.061,0.004,0.122,0.011,0.186,0.022
	c0.281,0.046,0.539,0.169,0.794,0.292c0.154,0.074,0.313,0.146,0.456,0.239c0.181,0.12,0.357,0.25,0.516,0.398
	c0.067-0.083,0.135-0.165,0.201-0.248c0.301-0.418,0.561-0.862,0.777-1.331c0.001-0.002,0.002-0.004,0.003-0.006
	c0.137-0.328,0.241-0.668,0.374-0.999c0.15-0.37,0.302-0.758,0.532-1.086c0.158-0.222,0.334-0.422,0.606-0.503
	c0.091-0.028,0.18-0.04,0.267-0.04c0.168,0,0.331,0.047,0.496,0.122c0.158,0.07,0.306,0.161,0.452,0.254
	c0.336,0.209,0.667,0.456,0.953,0.733c0.169,0.163,0.317,0.351,0.446,0.547c0.047,0.072,0.093,0.146,0.131,0.222
	c0.046,0.095,0.097,0.194,0.125,0.294C29.977,5.967,29.988,6.085,29.998,6.202z M26.151,12.15c-0.009-0.041-0.019-0.082-0.031-0.123
	c-0.085-0.162-0.193-0.311-0.302-0.459c-0.163-0.199-0.336-0.388-0.505-0.581c-0.177-0.202-0.356-0.387-0.558-0.557
	c-0.279-0.206-0.565-0.404-0.828-0.631c-0.231-0.2-0.412-0.446-0.639-0.65c-0.196-0.135-0.404-0.244-0.62-0.342
	c-0.109-0.04-0.217-0.07-0.336-0.09c-0.203-0.033-0.4-0.201-0.516-0.374c-0.035,0.001-0.07,0.002-0.106,0.005
	c-0.183,0.038-0.357,0.091-0.531,0.158c-0.228,0.1-0.447,0.207-0.655,0.344c-0.24,0.2-0.448,0.425-0.645,0.67
	c-0.263,0.354-0.521,0.711-0.778,1.069c-0.275,0.38-0.556,0.758-0.797,1.16c-0.439,0.731-0.858,1.475-1.28,2.216
	c-0.425,0.748-0.797,1.529-1.247,2.263c-0.454,0.741-0.963,1.445-1.458,2.157c-0.52,0.75-1.039,1.506-1.629,2.204
	c-0.537,0.636-1.075,1.285-1.669,1.874c-0.636,0.632-1.348,1.177-2.174,1.538c-0.403,0.177-0.822,0.332-1.247,0.45
	c-0.108,0.028-0.218,0.065-0.328,0.084c-0.197,0.032-0.408,0.085-0.609,0.063c-0.294-0.032-0.579-0.087-0.864-0.165
	c-0.406-0.11-0.809-0.213-1.192-0.385c-0.264-0.118-0.516-0.261-0.774-0.388c-0.007,0.008-0.015,0.015-0.022,0.023
	c-0.005,0.009-0.011,0.018-0.016,0.028c-0.008,0.025-0.016,0.051-0.023,0.077c-0.001,0.03-0.001,0.061,0,0.092
	c0.028,0.132,0.066,0.26,0.113,0.387c0.058,0.119,0.122,0.232,0.195,0.341c0.149,0.168,0.313,0.315,0.487,0.458
	c0.132,0.11,0.26,0.225,0.391,0.336c0.351,0.249,0.73,0.454,1.122,0.634c0.542,0.218,1.094,0.396,1.672,0.493
	c0.683,0.078,1.368,0.092,2.051,0.016c0.634-0.095,1.256-0.24,1.854-0.471c0.602-0.277,1.166-0.645,1.715-1.016
	c0.529-0.357,1.059-0.716,1.57-1.098c0.614-0.491,1.201-1.009,1.791-1.528c0.659-0.577,1.323-1.143,2.016-1.679
	c-0.055,0.042-0.11,0.085-0.165,0.127c1.185-0.949,2.311-1.965,3.414-3.006c0.552-0.52,1.107-1.039,1.641-1.58
	c0.442-0.447,0.888-0.898,1.282-1.389c0.423-0.585,0.782-1.215,1.078-1.874c0.069-0.186,0.117-0.375,0.154-0.569
	C26.158,12.358,26.158,12.254,26.151,12.15z M28.384,6.17c-0.031-0.053-0.064-0.105-0.099-0.156
	c-0.151-0.172-0.323-0.324-0.501-0.47c-0.073-0.052-0.147-0.102-0.223-0.15c-0.071,0.132-0.135,0.267-0.195,0.405
	c-0.099,0.248-0.186,0.502-0.288,0.75c-0.137,0.327-0.283,0.646-0.448,0.961c-0.135,0.256-0.277,0.513-0.442,0.752
	c-0.001,0.002-0.003,0.004-0.004,0.006c0.357-0.28,0.704-0.568,1.033-0.879c0.384-0.361,0.772-0.723,1.108-1.131
	C28.345,6.229,28.365,6.2,28.384,6.17z"/>
</svg>