<?xml version="1.0" encoding="iso-8859-1"?>
<!-- Generator: Adobe Illustrator 19.0.0, SVG Export Plug-In . SVG Version: 6.00 Build 0)  -->
<svg version="1.1" id="Layer_1" xmlns="http://www.w3.org/2000/svg" xmlns:xlink="http://www.w3.org/1999/xlink" x="0px" y="0px"
	 viewBox="0 0 199.526 199.526" style="enable-background:new 0 0 199.526 199.526;" xml:space="preserve">
<g>
	<g>
		<g>
			<path d="M195.831,125.369H3.695c-2.04,0-3.695,1.653-3.695,3.695c0,32.598,44.754,59.119,99.763,59.119
				c55.009,0,99.763-26.521,99.763-59.119C199.525,127.022,197.871,125.369,195.831,125.369z M99.763,180.793
				c-48.714,0-88.743-21.228-92.14-48.034h184.28C188.506,159.565,148.477,180.793,99.763,180.793z"/>
			<path d="M125.663,99.048l4.07,7.327l0.167-0.093l-0.568,5.868l-0.349,3.61l7.355,0.711l0.255-2.633
				c0.996-0.978,2.718-2.641,4.905-4.644c1.094,0.161,2.212,0.269,3.377,0.269c10.545,0,23.745-6.466,34.58-17.302
				c12.77-12.766,19.47-28.823,16.672-39.948c-0.332-1.317-1.362-2.349-2.681-2.681c-11.132-2.818-27.176,3.897-39.948,16.67
				c-6.507,6.507-11.426,13.865-14.327,20.99l1.399-14.45c7.149-5.152,11.731-16.644,11.731-29.995
				c0-14.109-5.079-26.232-12.94-30.891c-1.162-0.685-2.605-0.685-3.767,0c-7.861,4.658-12.94,16.782-12.94,30.891
				c0,12.625,4.085,23.617,10.573,29.136l-0.906,9.366c-1.471-5.535-4.343-11.386-8.491-16.889
				c-8.494-11.272-19.846-17.904-28.926-16.887c-1.342,0.151-2.493,1.021-3.008,2.266c-3.475,8.451-0.235,21.192,8.256,32.461
				C107.617,92.102,117.268,98.347,125.663,99.048z M158.724,71.428c9.898-9.898,22.081-15.736,30.613-15.104
				c0.704,8.555-5.209,20.715-15.106,30.613c-7.398,7.395-16.049,12.549-23.527,14.399c3.937-3.094,8.039-5.923,11.497-7.424
				l3.388-1.472l-2.943-6.776l-3.39,1.472c-4.769,2.071-10.366,6.113-15.365,10.203C145.122,89.368,150.519,79.633,158.724,71.428z
				 M130.046,42.75c0-11.244,3.576-19.333,7.433-23.068c3.857,3.734,7.433,11.824,7.433,23.068c0,6.542-1.229,11.976-3.001,16.146
				l0.683-7.053l-7.355-0.711l-0.992,10.249C131.841,57.009,130.046,50.686,130.046,42.75z M98.11,54.859
				c5.326,0.66,13.053,4.969,19.819,13.95c3.7,4.908,5.938,9.687,7.108,13.897l-1.668-3.003l-6.461,3.587l3.813,6.863
				c-4.573-2.03-9.854-6.014-14.663-12.395C99.29,68.777,97.276,60.16,98.11,54.859z"/>
		</g>
	</g>
</g>
<g>
</g>
<g>
</g>
<g>
</g>
<g>
</g>
<g>
</g>
<g>
</g>
<g>
</g>
<g>
</g>
<g>
</g>
<g>
</g>
<g>
</g>
<g>
</g>
<g>
</g>
<g>
</g>
<g>
</g>
</svg>
