<?xml version="1.0" encoding="iso-8859-1"?>
<!-- Generator: Adobe Illustrator 18.0.0, SVG Export Plug-In . SVG Version: 6.00 Build 0)  -->
<!DOCTYPE svg PUBLIC "-//W3C//DTD SVG 1.1//EN" "http://www.w3.org/Graphics/SVG/1.1/DTD/svg11.dtd">
<svg version="1.1" id="Capa_1" xmlns="http://www.w3.org/2000/svg" xmlns:xlink="http://www.w3.org/1999/xlink" x="0px" y="0px"
	 viewBox="0 0 419.791 419.791" style="enable-background:new 0 0 419.791 419.791;" xml:space="preserve">
<g>
	<path d="M381.187,126.08l1.144-2.866c1.497-3.748,2.256-7.672,2.256-11.664c0-11.124-5.972-21.518-15.586-27.126
		c-6.004-3.501-8.189-10.928-5.082-17.276c5.474-11.185,2.441-16.786-1.066-19.516c-2.36-1.835-5.226-2.554-8.282-2.072
		c-5.213,0.818-10.497,5.183-14.531,9.425c-0.669-9.736-2.518-21.253-7.424-24.524c-1.671-1.115-3.672-1.385-5.63-0.761
		c-2.868,0.912-5.685,4.07-8.188,7.944c-0.025-1.845-0.074-3.75-0.153-5.674c-0.512-12.405-2.051-27.114-9.481-30.77
		c-2.795-1.375-5.405-1.57-7.753-0.582c-4.669,1.966-6.558,7.737-9.172,15.725c-0.898,2.746-1.899,5.806-3.122,9.033
		c-1.551-3.424-3.856-5.481-6.804-5.931c-1.876-0.286-5.905-0.055-9.516,5.777c-5.691-6.984-14.2-11.188-22.05-10.343
		c-8.742,0.946-15.038,7.918-17.272,19.127c-3.663,18.374,10.699,34.398,21.054,43.275c-12.18,0.573-29.146,2.861-48.238,9.745
		c-21.843,7.875-41.908,20.17-59.639,36.543c-22.073,20.383-40.548,47.164-54.912,79.6C30.421,341.63,6.917,399.723,6.686,400.294
		c-0.827,2.048,0.164,4.379,2.213,5.206c0.49,0.198,0.997,0.292,1.495,0.292c1.583,0,3.082-0.946,3.711-2.504
		c0.23-0.57,23.697-58.57,84.948-196.877c13.874-31.328,31.645-57.157,52.817-76.77c16.885-15.641,35.977-27.398,56.744-34.946
		c35.451-12.883,63.923-8.985,64.202-8.946c0.09,0.013,0.18,0.023,0.27,0.03c11.983,0.934,20.692,3.542,27.271,7.125
		c-13.042-3.6-27.043-2.08-38.442,1.882c-23.965,8.328-38.826,26.398-36.14,43.944c0.252,1.647,1.5,2.966,3.13,3.309
		c3.196,0.673,7.415,0.7,8.394,0.7c17.164,1.442,30.636,15.273,31.709,32.397l-21.016-12.079
		c-5.228-3.003-11.462-3.511-17.103-1.395c-5.643,2.117-10.004,6.599-11.966,12.297c-5.059,14.695,1.118,30.861,14.688,38.438
		l40.11,22.396c2.423,7.985,6.783,17.469,14.569,24.415c8.464,15.272,53.651,99.764,50.116,156.335
		c-0.138,2.205,1.538,4.104,3.743,4.242c0.085,0.005,0.169,0.008,0.253,0.008c2.095,0,3.855-1.631,3.988-3.75
		c1.697-27.161-6.647-62.923-24.803-106.294c-7.304-17.449-14.804-32.655-20.163-42.965c7.733,2.511,16.62,2.602,26.567,0.234
		c15.946-3.797,26.937-11.463,32.665-22.785c7.283-14.397,5.856-33.798-4.242-57.665c-4.444-10.505-2.945-15.997-1.896-18.11
		c17.224-0.591,41.707-1.364,51.901-1.364c1.147,0,2.114,0.01,2.863,0.031c1.099,0.027,2.187-0.401,2.967-1.194
		c0.779-0.793,1.193-1.875,1.144-2.986C412.923,152.626,406.646,138.415,381.187,126.08z M403.338,155.16
		c-7.537-3.499-19.996-7.744-36.967-8.395c1.137-4.57,0.497-9.303-1.871-13.41l-0.81-1.405c-0.569-0.987-0.326-1.821-0.022-2.348
		c0.347-0.6,1.06-1.242,2.021-1.242c0.284,0,0.582,0.058,0.886,0.172C378.442,133.003,397.135,141.888,403.338,155.16z
		 M353.346,160.491l3.833-2.001c1.893-0.988,3.545-2.283,4.945-3.801c12.79,0.045,22.957,2.326,29.935,4.628
		C380.151,159.599,364.961,160.091,353.346,160.491z M237.51,205.411c-10.185-5.687-14.82-17.82-11.023-28.85
		c1.182-3.434,3.811-6.135,7.211-7.41c3.4-1.276,7.158-0.969,10.307,0.84l25.387,14.591l1.344,34.781
		c0.017,0.281,0.141,2.119,0.579,4.923L237.51,205.411z M349.045,189.683c9.01,21.294,10.556,38.908,4.471,50.936
		c-4.617,9.125-13.828,15.388-27.38,18.614c-12.379,2.949-22.61,1.516-30.408-4.259c-15.294-11.325-16.991-35.848-17.002-36.004
		l-1.673-43.305c-0.835-21.615-17.725-39.205-39.287-40.916c-0.12-0.01-0.24-0.015-0.361-0.012
		c-0.712,0.004-2.307-0.016-3.948-0.146c-0.031-14.084,15.084-26.689,31.084-32.249c29.936-10.401,50.516,3.426,59.045,18.426
		c1.093,1.92,3.532,2.592,5.455,1.5c1.92-1.092,2.592-3.534,1.5-5.454c-0.01-0.017-0.02-0.033-0.029-0.051
		c-0.677-1.192-1.351-2.434-2.043-3.71c-7.396-13.637-17.526-32.307-54.635-35.24c-0.613-0.084-2.76-0.354-6.157-0.531
		c-2.281-1.541-8.702-6.114-14.716-12.584c-11.874-12.775-12.885-22.889-11.642-29.125c1.08-5.42,3.742-12.03,10.287-12.738
		c6.65-0.712,14.78,4.914,18.125,12.56c0.669,1.529,2.229,2.48,3.884,2.391c1.667-0.091,3.102-1.208,3.6-2.801
		c1.513-4.843,3.145-6.866,3.911-7.46c0.734,0.884,2.271,4.028,2.271,11.267c0,1.826,1.236,3.42,3.005,3.874
		c1.764,0.455,3.62-0.346,4.5-1.946c4.388-7.978,6.911-15.689,8.939-21.886c1.41-4.31,3.342-10.212,4.635-10.83
		c-0.001-0.001,0.338-0.025,1.155,0.377c0.041,0.02,4.12,2.271,5.017,23.863c0.489,11.788-0.235,23.175-0.242,23.289
		c-0.129,1.972,1.203,3.743,3.134,4.166c1.926,0.422,3.882-0.626,4.591-2.471c3.3-8.58,8.02-17.159,10.568-19.413
		c1.845,3.216,3.694,14.521,3.698,27.978c0,1.755,1.145,3.305,2.821,3.822c1.678,0.516,3.495-0.119,4.483-1.569
		c3.002-4.403,10.89-13.76,16.109-14.579c1.113-0.175,1.698,0.147,2.13,0.482c2.309,1.797-0.075,7.372-1.207,9.685
		c-4.89,9.99-1.271,22.159,8.237,27.704c7.165,4.179,11.616,11.925,11.616,20.215c0,2.97-0.567,5.896-1.686,8.697l-1.027,2.574
		c-1.449-0.597-2.93-1.19-4.482-1.775c-1.207-0.455-2.453-0.686-3.704-0.686c-3.651,0-7.08,2.008-8.947,5.239
		c-1.863,3.226-1.857,7.094,0.019,10.347l0.81,1.404c1.393,2.415,1.73,5.219,0.95,7.896c-0.779,2.676-2.569,4.861-5.041,6.151
		l-18.399,9.604c0,0-2.879,1.464-3.683,1.926c-4.156,2.389-6.702,4.907-6.828,5.034c-1.559,1.559-1.558,4.079-0.005,5.642
		c0.78,0.786,1.808,1.179,2.836,1.179c1.018,0,2.035-0.385,2.815-1.155c0.027-0.026,2.591-2.526,6.616-4.543
		c1.458-0.054,4.725-0.174,9.111-0.33C344.883,173.261,344.971,180.053,349.045,189.683z"/>
	<path d="M293.729,113.457c-10.66,0-19.333,8.673-19.333,19.333s8.673,19.333,19.333,19.333c10.661,0,19.334-8.673,19.334-19.333
		S304.39,113.457,293.729,113.457z M293.729,144.124c-6.249,0-11.333-5.084-11.333-11.333s5.084-11.333,11.333-11.333
		c6.25,0,11.334,5.084,11.334,11.333S299.979,144.124,293.729,144.124z"/>
	<circle cx="293.729" cy="132.791" r="5.333"/>
</g>
<g>
</g>
<g>
</g>
<g>
</g>
<g>
</g>
<g>
</g>
<g>
</g>
<g>
</g>
<g>
</g>
<g>
</g>
<g>
</g>
<g>
</g>
<g>
</g>
<g>
</g>
<g>
</g>
<g>
</g>
</svg>
