<svg version="1.1" id="Uploaded to svgrepo.com" xmlns="http://www.w3.org/2000/svg" xmlns:xlink="http://www.w3.org/1999/xlink" x="0px" y="0px"
	 width="32px" height="32px" viewBox="0 0 32 32" style="enable-background:new 0 0 32 32;" xml:space="preserve">
<style type="text/css">
	.blueprint_een{fill:#111918;}
	.st0{fill:#111918;}
</style>
<path class="blueprint_een" d="M5.354,18.354l-0.707-0.707L12,10.293l5,5L25.293,7H23V6h3h1v1v3h-1V7.707l-9,9l-5-5L5.354,18.354z
	 M31,3v19c0,0.552-0.448,1-1,1h-8v1c0,0.552-0.448,1-1,1h-2v2h5c0.552,0,1,0.448,1,1v3c0,0.552-0.448,1-1,1H9c-0.552,0-1-0.448-1-1
	v-3c0-0.552,0.448-1,1-1h4v-2h-2c-0.552,0-1-0.448-1-1v-1H2c-0.552,0-1-0.448-1-1V3c0-0.552,0.448-1,1-1h10V1c0-0.552,0.448-1,1-1h6
	c0.552,0,1,0.448,1,1v1h10C30.552,2,31,2.448,31,3z M14,3h4V2h-4V3z M10,29v1h13v-1H10z M17,28v-4h-2v4H17z M20,22h-8v1h8V22z M29,4
	H3v17h26V4z"/>
</svg>