<svg width="125px" height="125px" viewBox="0 0 125 125" fill="none" xmlns="http://www.w3.org/2000/svg">
<rect x="14" y="14" width="97" height="97" fill="white"/>
<path d="M44.7223 35.4599L46.909 37.6466C47.6404 38.378 48.8089 38.423 49.7061 37.9083C51.4165 36.9271 53.4864 36.2268 55.0743 35.8075C56.0088 35.5607 56.7004 34.7355 56.7004 33.7689V30.5204C56.7004 30.1401 56.8016 29.7628 57.0413 29.4675C58.7154 27.4055 62.9024 25.1698 66.744 29.402C67.0494 29.7386 67.2004 30.1857 67.2004 30.6402V32.8765C67.2004 34.1776 68.4708 35.4138 69.7027 35.8327C71.0491 36.2904 72.601 37.0301 73.8518 37.6912C74.6551 38.1157 75.6482 37.9903 76.2906 37.3479L77.7803 35.8582C78.0545 35.584 78.4008 35.3892 78.7853 35.3388C81.4267 34.9926 85.6394 35.7585 85.7209 41.0873C85.7292 41.6286 85.4677 42.1357 85.0619 42.494C84.1956 43.2588 83.114 44.2552 82.5617 44.8876C82.277 45.2135 82.345 45.6228 82.5873 45.9813C83.9792 48.0409 84.6788 50.2752 84.989 51.9519C85.19 53.038 86.0959 53.9381 87.2004 53.9381H89.2035C89.5298 53.9381 89.8546 54.012 90.1273 54.1912C92.0555 55.4584 94.2704 58.6175 90.7803 63.2217C90.4285 63.6859 89.8654 63.9381 89.283 63.9381H86.7004C85.5959 63.9381 84.6963 64.8424 84.4343 65.9154C84.0337 67.5562 83.2477 69.257 82.5444 70.534C82.0846 71.3692 82.1857 72.4233 82.8598 73.0974L85.6147 75.8523C85.9897 76.2273 86.2092 76.7406 86.1726 77.2697C85.8192 82.3798 82.1864 83.2781 79.8552 83.0402C79.4264 82.9965 79.0483 82.763 78.7616 82.4412C77.8227 81.3873 76.4876 79.9427 75.7296 79.2871C75.4144 79.0144 75.0199 79.071 74.6719 79.3005C72.5628 80.6909 69.9319 81.8078 68.1112 82.4662C67.2806 82.7666 66.7004 83.5429 66.7004 84.4261V86.4723C66.7004 87.0824 66.429 87.6707 65.9141 87.9982C63.4373 89.5734 60.2237 89.9388 57.4236 87.9994C56.946 87.6686 56.7004 87.1041 56.7004 86.5231V84.4381C56.7004 83.3335 55.7949 82.4279 54.7282 82.141C52.9996 81.676 51.1376 80.7435 49.7277 79.9125C48.8414 79.3901 47.69 79.5336 47.0204 80.3147L45.6853 81.8724C45.3726 82.2373 44.9407 82.4854 44.4611 82.5168C41.5525 82.7067 37.1237 81.6439 37.6215 76.0938C37.6597 75.6674 37.8638 75.2747 38.1665 74.972L39.4754 73.6631C40.3678 72.7707 40.3986 71.0672 39.8598 69.9259C39.2237 68.5788 38.5991 66.8243 38.1382 65.3807C37.8666 64.53 37.0848 63.9381 36.1918 63.9381H33.8426C33.425 63.9381 33.0143 63.8114 32.6877 63.5512C27.975 59.796 30.4389 55.7741 32.6887 53.8448C33.0116 53.5679 33.4298 53.4381 33.8551 53.4381H36.2608C37.5229 53.4381 38.6229 52.2453 38.9923 51.0385C39.4211 49.6374 40.1876 48.0644 40.8826 46.8169C41.3388 45.998 41.2288 44.9665 40.566 44.3036L38.0485 41.7861C37.8199 41.5575 37.6444 41.2781 37.5729 40.9628C37.032 38.5761 37.5952 34.7365 43.4608 34.8983C43.937 34.9114 44.3855 35.1231 44.7223 35.4599Z" fill="url(#paint0_linear)"/>
<path d="M82.2004 45.4381C84.6004 48.6381 85.2004 52.4381 85.2004 53.9381H89.7004C91.7853 55.0424 94.8042 58.5884 90.2004 63.9381H84.7004C84.7004 66.7381 82.7004 70.4381 81.7004 71.9381L86.2004 76.4381C86.2004 82.8381 81.5338 83.4381 79.2004 82.9381C78.0338 81.6047 75.6004 78.9381 75.2004 78.9381C72.4004 80.9381 68.3671 82.4381 66.7004 82.9381V87.4381C63.9458 89.6252 59.9551 90.251 56.7004 87.4381V82.4381C53.9004 82.4381 49.8671 80.1047 48.2004 78.9381L45.2004 82.4381C42.2853 82.8757 36.7042 82.0884 37.7004 75.4381L41.2004 71.9381C40.0004 71.1381 38.3671 66.2714 37.7004 63.9381H33.2004C27.4041 59.7884 30.7853 55.209 33.2004 53.4381H38.7004C38.3004 51.4381 40.5338 47.2714 41.7004 45.4381L37.7004 41.4381C36.952 39.0424 37.2042 34.3884 44.2004 34.9381L48.2004 38.9381C50.6004 36.9381 54.8671 35.7714 56.7004 35.4381" stroke="#3F3F3F" stroke-width="2" stroke-linecap="round" stroke-linejoin="round"/>
<circle cx="62" cy="59" r="9.5" fill="white" stroke="#3F3F3F" stroke-width="3"/>
<defs>
<linearGradient id="paint0_linear" x1="62.5" y1="56" x2="30" y2="105" gradientUnits="userSpaceOnUse">
<stop stop-color="#34ECE1" stop-opacity="0"/>
<stop offset="1" stop-color="#34F0E5"/>
</linearGradient>
</defs>
</svg>
