
<svg version="1.1" id="Capa_1" xmlns="http://www.w3.org/2000/svg" xmlns:xlink="http://www.w3.org/1999/xlink" x="0px" y="0px" fill="blue"
	 viewBox="0 0 62.245 62.245" style="enable-background:new 0 0 62.245 62.245;" xml:space="preserve">
<g>
	<path style="fill:blue;" d="M55.337,62.191c-7.839-5.654-15.539-11.208-23.327-16.826c-1.864,1.19-3.597,2.284-5.316,3.398
		c-3.681,2.384-7.395,4.72-11.016,7.191c-2.457,1.677-4.779,3.55-7.16,5.337c-0.398,0.298-0.747,0.751-1.19,0.87
		c-0.487,0.133-1.149,0.117-1.561-0.126c-0.297-0.175-0.442-0.834-0.429-1.271c0.127-4.211,0.372-8.419,0.449-12.63
		c0.162-8.931,0.251-17.861,0.355-26.793c0.062-5.281,0.143-10.564,0.109-15.845c-0.01-1.54-0.384-3.078-0.612-4.771
		c0.756-0.109,1.382-0.291,2.002-0.273c1.633,0.047,3.273,0.342,4.895,0.255c10.012-0.535,20.021-0.681,30.045-0.335
		c3.457,0.119,6.93-0.261,10.397-0.347c3.688-0.091,4.156-0.178,3.851,3.873c-0.336,4.454-0.143,8.946-0.231,13.421
		c-0.163,8.284-0.468,16.565-0.513,24.85c-0.031,5.714,0.235,11.432,0.459,17.144C56.59,60.492,56.483,61.445,55.337,62.191z
		 M8.66,3.024c-0.885,4.238-1.322,52.694-0.508,55.62c7.89-5.289,15.756-10.564,23.635-15.847
		c7.405,5.3,14.695,10.518,22.129,15.838c0.243-18.819,0.483-37.453,0.727-56.334C39.144,2.139,23.873,1.722,8.66,3.024z"/>
</g>
<g>
</g>
<g>
</g>
<g>
</g>
<g>
</g>
<g>
</g>
<g>
</g>
<g>
</g>
<g>
</g>
<g>
</g>
<g>
</g>
<g>
</g>
<g>
</g>
<g>
</g>
<g>
</g>
<g>
</g>
</svg>
