<?xml version="1.0" encoding="iso-8859-1"?>
<!-- Generator: Adobe Illustrator 18.0.0, SVG Export Plug-In . SVG Version: 6.00 Build 0)  -->
<!DOCTYPE svg PUBLIC "-//W3C//DTD SVG 1.1//EN" "http://www.w3.org/Graphics/SVG/1.1/DTD/svg11.dtd">
<svg version="1.1" id="Capa_1" xmlns="http://www.w3.org/2000/svg" xmlns:xlink="http://www.w3.org/1999/xlink" x="0px" y="0px"
	 viewBox="0 0 56 56" style="enable-background:new 0 0 56 56;" xml:space="preserve">
<g>
	<path d="M53.454,40.053C53.055,35.964,50.003,33,46.184,33c-2.396,0-4.407,1.449-5.684,3.213C39.224,34.449,37.212,33,34.817,33
		c-3.818,0-6.871,2.963-7.271,7.052c-0.042,0.267-0.145,1.22,0.226,2.709c0.545,2.197,1.8,4.191,3.631,5.771l8.329,7.126
		c0.214,0.185,0.487,0.285,0.77,0.285c0.278,0,0.549-0.099,0.768-0.283l8.331-7.13c1.828-1.575,3.083-3.57,3.629-5.768
		C53.598,41.272,53.496,40.32,53.454,40.053z M51.287,42.279c-0.445,1.794-1.479,3.432-2.99,4.732l-7.796,6.672l-7.795-6.67
		c-1.514-1.305-2.549-2.941-2.993-4.735c-0.302-1.213-0.194-1.897-0.194-1.897l0.016-0.105C29.78,37.654,31.672,35,34.817,35
		c2.189,0,3.974,1.811,4.77,3.605l0.914,2.061l0.914-2.061C42.21,36.811,43.995,35,46.184,35c3.145,0,5.037,2.654,5.295,5.367
		C51.481,40.374,51.591,41.058,51.287,42.279z"/>
	<rect x="2.5" width="34" height="11"/>
	<path d="M34.817,29c0.566,0,1.127,0.061,1.684,0.156V13h-34v41.443C2.5,55.302,3.2,56,4.059,56c0.412,0,0.801-0.162,1.091-0.452
		L19.5,41l5.377,5.451c-0.416-0.876-0.754-1.785-0.987-2.728c-0.503-2.023-0.41-3.494-0.311-4.191
		C24.209,33.544,29.041,29,34.817,29z"/>
</g>
<g>
</g>
<g>
</g>
<g>
</g>
<g>
</g>
<g>
</g>
<g>
</g>
<g>
</g>
<g>
</g>
<g>
</g>
<g>
</g>
<g>
</g>
<g>
</g>
<g>
</g>
<g>
</g>
<g>
</g>
</svg>
